<svg xmlns="http://www.w3.org/2000/svg" width="143.92" height="38" viewBox="0 0 143.92 38"><title>uams-logo-dark</title><path d="M31.32,23.14c0,3.89.1,7.58-2.8,10.77a14.19,14.19,0,0,1-10,4H15.06A13.86,13.86,0,0,1,5.19,34c-2.9-3.19-2.8-6.78-2.8-10.77V8.58c0-2.5.4-6.49-2.39-7.48V.9H10.47v.2c-2.69,1-2.39,5-2.39,7.48V23.24c0,7.28,3.09,10.67,8.68,10.67a9.63,9.63,0,0,0,8-3.79c1.2-1.6,1.2-3,1.2-5V8.58c0-2.5.3-6.49-2.39-7.48V.9H33.81v.2c-2.79,1-2.49,5-2.49,7.58V23.14Z" fill="#212121"/><path d="M47.67,5.59,40.79,23.44,37.9,31.12c-1.2,3.09-1.5,4.69,1.1,5.68V37H29v-.2c3.2-1.59,4.09-4.68,5.29-7.78L43.49,6.18c.79-2,1.79-4.28-.8-5.08V.9h8.67L62.73,29c1.3,3.1,2.2,6.19,5.39,7.78V37H56.85v-.2c2.69-1.19,2.19-1.79.8-5.68l-3-7.68Z" fill="#212121"/><path d="M99.74,4.39a8.07,8.07,0,0,0,.8-3.39H110v.1c-1.3.4-1.7,2-1.7,3.19l3.6,26.83c.29,2.59.59,4.09,2.79,5.58v.2H104.13v-.2c1.89-.6,2.19-2.19,2.19-4.09L103.23,6.28,91.06,37.6C88.37,35.51,87.57,34,86.27,31L75.8,6.28,72.71,29.92c-.4,3.29-.8,5.79,1.79,6.88V37H65.63v-.2c2.29-2,2.59-4.68,3.09-7.68L71.81,6.18c.2-1.49.8-3.69-1.69-5.08V.9h9.57a7.27,7.27,0,0,0,.8,2.49L90.66,27.53,99.74,4.39Z" fill="#212121"/><path d="M136.54,7.38A12.52,12.52,0,0,0,128,3.89c-3.09,0-7.08,1.2-7.08,5,0,7.48,18.85,7.38,18.85,17.55,0,5.88-6.08,11.37-14.66,11.37a29.44,29.44,0,0,1-9.77-1.6l-1.6-6.88a19,19,0,0,0,12,4.59c3.09,0,7.78-1.89,7.78-5.68,0-8.58-18.85-7-18.85-18.66,0-6.88,7.08-9.57,13.76-9.57a28.42,28.42,0,0,1,8.18,1.2V7.38Z" fill="#212121"/><path d="M47.77,30.62A4.59,4.59,0,1,0,43.19,26a4.57,4.57,0,0,0,4.58,4.59Z" fill="#9d2235"/><path d="M141.23,35h-.6v-.7h.6c.3,0,.5.1.5.4s-.2.3-.5.3Zm1.2-.4c0-.6-.5-.9-1.1-.9H140V36.4h.7v-.79h.4l.6.89h.79l-.69-1a1.46,1.46,0,0,0,.6-.9Z" fill="#212121"/><path d="M143.42,35.11h0a2.3,2.3,0,0,1-4.59.4v-.3h0a2.3,2.3,0,1,1,4.59-.4Zm-2.29-2.7a2.8,2.8,0,1,0,2.79,2.8,2.86,2.86,0,0,0-2.79-2.8Z" fill="#212121"/></svg>